<svg xmlns="http://www.w3.org/2000/svg" xmlns:xlink="http://www.w3.org/1999/xlink" width="40" height="25" fill="none" xmlns:v="https://vecta.io/nano"><g fill="#016fd0"><path d="M0 2.501a2 2 0 0 1 2-2h36a2 2 0 0 1 2 2v20a2 2 0 0 1-2 2H2a2 2 0 0 1-2-2v-20z"/><path d="M9.975 2.501h20v10.797l-.99 1.547.99 1.377v6.28h-20V12.323l.619-.712-.619-.681v-8.43z"/></g><path d="M13.858 16.438v-3.14h3.325l.357.465.368-.465h12.068v2.924s-.316.213-.681.216h-6.682l-.402-.495v.495h-1.318v-.845s-.18.118-.569.118h-.449v.727H17.88l-.356-.475-.362.475h-3.304zm-3.883-5.507l.75-1.748h1.297l.425.979v-.979h1.612l.253.708.245-.708h7.235v.356s.38-.356 1.005-.356l2.348.008.418.966v-.974h1.349l.371.555v-.555h1.361v3.14h-1.361l-.356-.557v.557h-1.982l-.199-.495h-.533l-.196.495h-1.344c-.538 0-.882-.348-.882-.348v.348h-2.026l-.402-.495v.495h-7.535l-.199-.495h-.531l-.198.495h-.926v-1.392z" fill="#fff"/><g fill="#016fd0"><use xlink:href="#B"/><path d="M12.837 11.921V9.57l.936.003.544 1.516.531-1.519h.928v2.351h-.588v-1.732l-.623 1.732h-.515l-.625-1.732v1.732h-.588zm3.341 0V9.57h1.918v.526h-1.324v.402h1.293v.495h-1.293v.418h1.324v.511h-1.918zm2.258-2.351v2.351h.588v-.835h.247l.705.835h.718l-.773-.866c.317-.027.645-.299.645-.722 0-.495-.388-.763-.822-.763h-1.308zm.588.526h.672c.161 0 .278.126.278.248 0 .156-.152.247-.27.247h-.681v-.495zm2.382 1.825h-.6V9.57h.6v2.351zm1.423 0h-.13c-.627 0-1.007-.494-1.007-1.166 0-.689.376-1.185 1.168-1.185h.65v.557h-.673c-.321 0-.549.251-.549.634 0 .455.26.646.634.646h.155l-.247.514z"/><use xlink:href="#B" x="13.118"/><path d="M25.953 11.921V9.57h.747l.954 1.477V9.57h.588v2.351h-.723l-.978-1.516v1.516h-.588zM14.26 16.035v-2.351h1.918v.526h-1.324v.402h1.293v.495h-1.293v.418h1.324v.51H14.26zm9.398 0v-2.351h1.918v.526h-1.324v.402h1.287v.495h-1.287v.418h1.324v.51h-1.918zm-7.406 0l.934-1.161-.956-1.19h.741l.569.736.571-.736h.712l-.944 1.175.936 1.176h-.74l-.553-.724-.539.724h-.73z"/><path d="M18.885 13.685v2.351h.603v-.742h.619c.523 0 .92-.278.92-.818 0-.447-.311-.791-.844-.791h-1.298zm.603.532h.651c.169 0 .29.104.29.271 0 .157-.12.271-.292.271h-.65v-.541zm1.794-.533v2.351h.588V15.2h.247l.705.835h.718l-.773-.866c.317-.027.645-.299.645-.722 0-.495-.388-.763-.822-.763h-1.308zm.588.526h.672c.161 0 .279.126.279.248 0 .156-.152.247-.27.247h-.68v-.495zm3.978 1.825v-.51h1.176c.174 0 .249-.094.249-.197s-.075-.199-.249-.199h-.532c-.462 0-.719-.281-.719-.704 0-.377.236-.74.922-.74h1.145l-.247.529h-.99c-.189 0-.248.099-.248.194s.072.205.216.205h.557c.515 0 .739.292.739.675a.7.7 0 0 1-.767.748h-1.253z"/><path d="M28.006 16.035v-.51h1.176c.174 0 .249-.094.249-.197s-.075-.199-.249-.199h-.532c-.462 0-.719-.281-.719-.704 0-.377.236-.74.922-.74h1.145l-.248.529h-.99c-.189 0-.248.099-.248.194s.072.205.217.205h.557c.515 0 .739.292.739.675a.7.7 0 0 1-.767.748h-1.253z"/></g><path d="M2 1.501h36v-2H2v2zm37 1v20h2v-20h-2zm-1 21H2v2h36v-2zm-37-1v-20h-2v20h2zm1 1a1 1 0 0 1-1-1h-2a3 3 0 0 0 3 3v-2zm37-1a1 1 0 0 1-1 1v2a3 3 0 0 0 3-3h-2zm-1-21a1 1 0 0 1 1 1h2a3 3 0 0 0-3-3v2zm-36-2a3 3 0 0 0-3 3h2a1 1 0 0 1 1-1v-2z" fill="#f3f4f5"/><defs ><path id="B" d="M10.99 9.57l-1.011 2.351h.658l.187-.471h1.085l.186.471h.673l-1.01-2.351h-.767zm.374.547l.331.823h-.662l.332-.823z"/></defs></svg>