<svg xmlns="http://www.w3.org/2000/svg" width="40" height="25" fill="none" opacity=".8" xmlns:v="https://vecta.io/nano"><path d="M0 2.501a2 2 0 0 1 2-2h36a2 2 0 0 1 2 2v20a2 2 0 0 1-2 2H2a2 2 0 0 1-2-2v-20z" fill="#fff"/><path d="M22.625 7.784h-5.25v9.433h5.25V7.784z" fill="#ff5f00"/><path d="M17.708 12.501c0-1.917.9-3.617 2.283-4.717-1.017-.8-2.3-1.283-3.7-1.283-3.317 0-6 2.683-6 6s2.683 6 6 6c1.4 0 2.683-.483 3.7-1.283a5.99 5.99 0 0 1-2.283-4.717z" fill="#eb001b"/><path d="M29.708 12.501c0 3.317-2.683 6-6 6-1.4 0-2.683-.483-3.7-1.283 1.4-1.1 2.283-2.8 2.283-4.717s-.9-3.617-2.283-4.717c1.017-.8 2.3-1.283 3.7-1.283a6.01 6.01 0 0 1 6 6z" fill="#f79e1b"/><path d="M2 1.501h36v-2H2v2zm37 1v20h2v-20h-2zm-1 21H2v2h36v-2zm-37-1v-20h-2v20h2zm1 1a1 1 0 0 1-1-1h-2a3 3 0 0 0 3 3v-2zm37-1a1 1 0 0 1-1 1v2a3 3 0 0 0 3-3h-2zm-1-21a1 1 0 0 1 1 1h2a3 3 0 0 0-3-3v2zm-36-2a3 3 0 0 0-3 3h2a1 1 0 0 1 1-1v-2z" fill="#f3f4f5"/></svg>