<svg xmlns="http://www.w3.org/2000/svg" width="40" height="25" fill="none" opacity=".8" xmlns:v="https://vecta.io/nano"><path d="M0 2.501a2 2 0 0 1 2-2h36a2 2 0 0 1 2 2v20a2 2 0 0 1-2 2H2a2 2 0 0 1-2-2v-20z" fill="#fff"/><path d="M24.671 7.501c-2.192 0-4.15 1.136-4.15 3.234 0 2.407 3.473 2.573 3.473 3.782 0 .509-.583.965-1.58.965-1.414 0-2.471-.637-2.471-.637l-.452 2.118s1.218.538 2.834.538c2.396 0 4.281-1.192 4.281-3.326 0-2.543-3.488-2.704-3.488-3.826 0-.399.479-.836 1.473-.836 1.121 0 2.036.463 2.036.463l.443-2.045s-.995-.429-2.399-.429zm-20.049.154l-.053.309s.922.169 1.752.505c1.069.386 1.145.611 1.325 1.308l1.962 7.564h2.63l4.052-9.686h-2.624l-2.604 6.586L10 8.659c-.097-.639-.591-1.003-1.195-1.003H4.621zm12.724 0l-2.059 9.686h2.502l2.051-9.686h-2.495zm13.957 0c-.603 0-.923.323-1.158.888l-3.666 8.799h2.624l.508-1.466h3.197l.309 1.466h2.315l-2.02-9.686h-2.109zm.341 2.617l.778 3.635h-2.084l1.306-3.635z" fill="#1434cb"/><path d="M2 1.501h36v-2H2v2zm37 1v20h2v-20h-2zm-1 21H2v2h36v-2zm-37-1v-20h-2v20h2zm1 1a1 1 0 0 1-1-1h-2a3 3 0 0 0 3 3v-2zm37-1a1 1 0 0 1-1 1v2a3 3 0 0 0 3-3h-2zm-1-21a1 1 0 0 1 1 1h2a3 3 0 0 0-3-3v2zm-36-2a3 3 0 0 0-3 3h2a1 1 0 0 1 1-1v-2z" fill="#f3f4f5"/></svg>